<?xml version="1.0" encoding="UTF-8" standalone="no"?>
<svg
   xmlns:dc="http://purl.org/dc/elements/1.1/"
   xmlns:cc="http://creativecommons.org/ns#"
   xmlns:rdf="http://www.w3.org/1999/02/22-rdf-syntax-ns#"
   xmlns:svg="http://www.w3.org/2000/svg"
   xmlns="http://www.w3.org/2000/svg"
   xmlns:sodipodi="http://sodipodi.sourceforge.net/DTD/sodipodi-0.dtd"
   xmlns:inkscape="http://www.inkscape.org/namespaces/inkscape"
   width="62px"
   height="42px"
   viewBox="0 0 62 42"
   style="stroke:none"
   id="svg2"
   version="1.1"
   inkscape:version="0.48.2 r9819"
   sodipodi:docname="scicos_snorm.svg">
  <metadata
     id="metadata52">
    <rdf:RDF>
      <cc:Work
         rdf:about="">
        <dc:format>image/svg+xml</dc:format>
        <dc:type
           rdf:resource="http://purl.org/dc/dcmitype/StillImage" />
        <dc:title>Grafik-Fenster Nummer 0</dc:title>
      </cc:Work>
    </rdf:RDF>
  </metadata>
  <sodipodi:namedview
     pagecolor="#ffffff"
     bordercolor="#666666"
     borderopacity="1"
     objecttolerance="10"
     gridtolerance="10"
     guidetolerance="10"
     inkscape:pageopacity="0"
     inkscape:pageshadow="2"
     inkscape:window-width="1920"
     inkscape:window-height="1033"
     id="namedview50"
     showgrid="false"
     inkscape:zoom="22.47619"
     inkscape:cx="31.127866"
     inkscape:cy="16.159985"
     inkscape:window-x="1438"
     inkscape:window-y="-3"
     inkscape:window-maximized="1"
     inkscape:current-layer="g12" />
  <title
     id="title4">Grafik-Fenster Nummer 0</title>
  <desc
     id="desc6">
Creator: GL2PS 1.3.2, (C) 1999-2006 Christophe Geuzaine (geuz@geuz.org)
For: Scilab
CreationDate: Tue Oct 12 10:40:21 2010
</desc>
  <defs
     id="defs8" />
  <polygon
     fill="#ffffff"
     points="0,0 62,0 62,42 0,42"
     id="polygon10" />
  <g
     id="g12">
    <polygon
       fill="#ffffff"
       points="0.620001,41.2533 0.620001,0.746666 0.620001,41.2533"
       id="polygon14" />
    <polygon
       fill="#ffffff"
       points="0.620001,0.746666 0.620001,0.746666 0.620001,41.2533"
       id="polygon16" />
    <polygon
       fill="#ffffff"
       points="0.620001,41.2533 61.38,41.2533 0.620001,41.2533"
       id="polygon18" />
    <polygon
       fill="#ffffff"
       points="61.38,41.2533 61.38,41.2533 0.620001,41.2533"
       id="polygon20" />
    <polygon
       fill="#ffffff"
       points="0.620001,41.2533 61.38,41.2533 0.620001,0.746666"
       id="polygon22" />
    <polygon
       fill="#ffffff"
       points="61.38,41.2533 61.38,0.746666 0.620001,0.746666"
       id="polygon24" />
    <polygon
       points="0.620001,0.746666 0.620001,41.2533 61.38,0.746666"
       id="polygon26"
       fill="#ffffff" />
    <polygon
       points="61.38,41.2533 61.38,0.746666 0.620001,41.2533 "
       id="polygon28"
       transform="translate(-0.71186441,-1.4237288)"
       style="fill:#ffffff" />
    <polyline
       fill="none"
       stroke="#000000"
       stroke-width="1"
       points="0.620001,0.746666 0.620001,41.2533 61.38,41.2533 61.38,0.746666 0.620001,0.746666"
       id="polyline30" />
    <polygon
       fill="#000000"
       points="62,0 61.38,0 62,42"
       id="polygon32" />
    <polygon
       fill="#000000"
       points="61.38,0 61.38,42 62,42"
       id="polygon34" />
    <polyline
       fill="none"
       stroke="#000000"
       stroke-width="0.5"
       points="61.38,0 61.38,42"
       id="polyline36" />
    <polygon
       fill="#000000"
       points="0.620001,21 0,20.7933 0,21.2067"
       id="polygon38" />
    <polyline
       fill="none"
       stroke="#000000"
       stroke-width="0.5"
       points="0,21.2067 0.620001,21 0,20.7933"
       id="polyline40" />
    <polygon
       fill="#ff0000"
       points="31.56,0 30.44,0 31,0.746666"
       id="polygon42" />
    <polyline
       fill="none"
       stroke="#ff0000"
       stroke-width="0.5"
       points="30.44,0 31,0.746666 31.56,0"
       id="polyline44" />
    <text
       style="font-size:14px;font-style:normal;font-weight:normal;fill:#000000;stroke:none;font-family:SansSerif"
       x="14.254237"
       y="12.550847"
       font-size="14"
       font-style="normal"
       font-weight="normal"
       id="text46">
      <tspan
         style="font-size:9px"
         id="tspan3029">T-Norm</tspan>
    </text>
    <text
       style="font-size:14px;font-style:normal;font-weight:normal;fill:#000000;stroke:none;font-family:SansSerif"
       x="26.711864"
       y="31.661018"
       font-size="14"
       font-style="normal"
       font-weight="normal"
       id="text48" />
    <path
       sodipodi:type="star"
       id="path3035"
       sodipodi:sides="8"
       sodipodi:cx="11.923729"
       sodipodi:cy="27.762712"
       sodipodi:r1="7.7348742"
       sodipodi:r2="7.1138639"
       sodipodi:arg1="1.1689257"
       sodipodi:arg2="1.5616248"
       inkscape:flatsided="true"
       inkscape:rounded="0"
       inkscape:randomized="0"
       d="m 14.949152,34.881356 -5.919767,0.0543 -4.2243,-4.147515 -0.054295,-5.919767 4.1475154,-4.224301 5.9197676,-0.05429 4.2243,4.147515 0.05429,5.919767 z"
       style="fill:none;stroke:#000000"
       transform="translate(19.042373,0)" />
    <path
       style="fill:none;stroke:#000000;stroke-width:1px;stroke-linecap:butt;stroke-linejoin:miter;stroke-opacity:1"
       d="m 27.451272,29.675848 3.826271,-4.36017 3.381356,4.449153"
       id="path3056"
       inkscape:connector-curvature="0"
       sodipodi:nodetypes="ccc" />
  </g>
</svg>
